<svg width="172" height="30" viewBox="0 0 172 30" fill="none"
    xmlns="http://www.w3.org/2000/svg">
    <path d="M39.7023 15.8401C39.7023 22.8606 33.9822 28.5601 26.916 28.5601C19.8498 28.5601 14.1298 22.8606 14.1298 15.8401C14.1298 8.81959 19.8498 3.12012 26.916 3.12012C33.9822 3.12012 39.7023 8.81959 39.7023 15.8401Z" stroke="white" stroke-width="2" />
    <path d="M33.1374 15.8401C33.1374 22.8606 27.4173 28.5601 20.3511 28.5601C13.2849 28.5601 7.56488 22.8606 7.56488 15.8401C7.56488 8.81959 13.2849 3.12012 20.3511 3.12012C27.4173 3.12012 33.1374 8.81959 33.1374 15.8401Z" stroke="white" stroke-width="2" />
    <path d="M27.5725 15.8401C27.5725 23.4175 21.4002 29.5601 13.7863 29.5601C6.17232 29.5601 0 23.4175 0 15.8401C0 8.26277 6.17232 2.12012 13.7863 2.12012C21.4002 2.12012 27.5725 8.26277 27.5725 15.8401Z" fill="white" />
    <path d="M67.7131 28.4404C65.9728 28.4404 64.475 28.236 63.2196 27.827C61.9643 27.4181 60.8089 26.8889 59.7532 26.2394L57.7419 27.9714H56.458V20.394H57.7847C58.127 21.5727 58.6834 22.6793 59.4537 23.7136C60.2525 24.748 61.3224 25.5899 62.6633 26.2394C64.0042 26.8648 65.6447 27.1775 67.5848 27.1775C69.1824 27.1775 70.5091 26.961 71.5647 26.5281C72.6489 26.0951 73.462 25.5057 74.004 24.76C74.5746 23.9903 74.8599 23.1483 74.8599 22.2342C74.8599 21.2961 74.6032 20.5384 74.0896 19.961C73.5761 19.3837 72.9056 18.9387 72.0782 18.626C71.2794 18.2892 70.4092 18.0246 69.4677 17.8322C68.5548 17.6397 67.6846 17.4593 66.8572 17.2909C64.8601 16.858 63.1055 16.2927 61.5934 15.5951C60.0813 14.8734 58.8973 13.9473 58.0414 12.8167C57.2141 11.6861 56.8004 10.2789 56.8004 8.59507C56.8004 6.74284 57.2711 5.21534 58.2126 4.01259C59.1541 2.80984 60.3952 1.91981 61.9358 1.34249C63.4764 0.741117 65.1169 0.44043 66.8572 0.44043C68.1411 0.44043 69.2823 0.596786 70.2809 0.9095C71.3079 1.22222 72.3921 1.67926 73.5333 2.28064L75.2023 0.765172H76.5289V8.126H75.2451C74.4177 5.84077 73.305 4.20503 71.9071 3.21878C70.5091 2.20847 68.7973 1.70332 66.7716 1.70332C65.5449 1.70332 64.4179 1.8717 63.3908 2.20847C62.3923 2.52118 61.5934 2.97823 60.9943 3.5796C60.3952 4.18098 60.0956 4.8906 60.0956 5.70847C60.0956 6.47823 60.3524 7.11569 60.8659 7.62084C61.3795 8.10194 62.0499 8.48682 62.8773 8.77548C63.7047 9.06414 64.5891 9.30469 65.5306 9.49713C66.4721 9.68957 67.3708 9.86998 68.2267 10.0384C70.395 10.4714 72.2209 11.0727 73.7045 11.8425C75.188 12.5882 76.315 13.5745 77.0853 14.8013C77.8556 16.0281 78.2408 17.5676 78.2408 19.4198C78.2408 22.2583 77.3278 24.4714 75.5019 26.059C73.7045 27.6466 71.1082 28.4404 67.7131 28.4404Z" fill="white" />
    <path class="md:block hidden" d="M96.9138 28.4404C94.6885 28.4404 92.6058 28.0556 90.6657 27.2858C88.7542 26.516 87.0709 25.4696 85.6159 24.1466C84.1894 22.8236 83.0625 21.3202 82.2351 19.6363C81.4362 17.9525 81.0368 16.1844 81.0368 14.3322C81.0368 12.4799 81.4362 10.7239 82.2351 9.06414C83.0625 7.38029 84.1894 5.90091 85.6159 4.626C87.0709 3.32703 88.7542 2.30469 90.6657 1.55898C92.6058 0.813281 94.6885 0.44043 96.9138 0.44043C99.1392 0.44043 101.222 0.813281 103.162 1.55898C105.102 2.30469 106.785 3.32703 108.212 4.626C109.667 5.90091 110.794 7.38029 111.593 9.06414C112.42 10.7239 112.834 12.4799 112.834 14.3322C112.834 16.1844 112.42 17.9525 111.593 19.6363C110.794 21.3202 109.667 22.8236 108.212 24.1466C106.785 25.4696 105.102 26.516 103.162 27.2858C101.222 28.0556 99.1392 28.4404 96.9138 28.4404ZM96.871 27.1775C98.3261 27.1775 99.5529 26.9971 100.551 26.6363C101.55 26.2514 102.349 25.5899 102.948 24.6518C103.576 23.7136 104.018 22.4147 104.275 20.7549C104.56 19.0951 104.703 16.9782 104.703 14.4043C104.703 11.8305 104.56 9.72565 104.275 8.08991C104.018 6.43012 103.576 5.14318 102.948 4.22909C102.349 3.29094 101.55 2.64146 100.551 2.28064C99.5529 1.89576 98.3261 1.70332 96.871 1.70332C95.4445 1.70332 94.232 1.89576 93.2334 2.28064C92.2634 2.64146 91.4788 3.27892 90.8797 4.19301C90.2806 5.1071 89.8384 6.39404 89.5531 8.05383C89.2963 9.68957 89.1679 11.7824 89.1679 14.3322C89.1679 16.9542 89.2963 19.1071 89.5531 20.7909C89.8384 22.4507 90.2806 23.7497 90.8797 24.6879C91.5074 25.6019 92.3062 26.2514 93.2762 26.6363C94.2748 26.9971 95.4731 27.1775 96.871 27.1775Z" fill="white" />
    <path class="md:block hidden" d="M125.982 15.6312V14.5487H129.534C131.103 14.5487 132.373 14.3803 133.343 14.0435C134.313 13.6827 135.026 13.0332 135.483 12.0951C135.939 11.1329 136.167 9.74971 136.167 7.94558C136.167 6.23768 135.982 4.95074 135.611 4.08476C135.24 3.21878 134.684 2.62943 133.942 2.31672C133.229 2.004 132.33 1.84765 131.246 1.84765H115.412V0.765172H133.386C135.44 0.765172 137.28 1.07789 138.906 1.70332C140.561 2.32875 141.873 3.19472 142.843 4.30125C143.813 5.38373 144.298 6.63459 144.298 8.05383C144.298 9.54524 143.699 10.8683 142.501 12.0229C141.331 13.1535 139.648 14.0435 137.451 14.693C135.254 15.3184 132.615 15.6312 129.534 15.6312H125.982ZM115.412 27.9714V26.8889H131.289V27.9714H115.412ZM119.477 27.4301V0.765172H126.239V27.4301H119.477Z" fill="white" />
    <path class="md:block hidden" d="M161.858 27.4301L154.026 9.3528H153.855L153.598 8.01775L156.508 0.44043H157.621L169.261 27.4301H161.858ZM140.118 27.9714V26.8889H150.56V27.9714H140.118ZM147.778 20.6105V19.5641H162.499V20.6105H147.778ZM157.15 27.9714V26.8889H172V27.9714H157.15ZM143.884 27.4301L156.508 0.44043H157.621L155.395 6.17754L145.296 27.4301H143.884Z" fill="white" />
</svg>
    